<?xml version="1.0" standalone="no"?>
<!DOCTYPE svg PUBLIC "-//W3C//DTD SVG 20010904//EN"
 "http://www.w3.org/TR/2001/REC-SVG-20010904/DTD/svg10.dtd">
<svg version="1.0" xmlns="http://www.w3.org/2000/svg"
 width="180.000000pt" height="180.000000pt" viewBox="0 0 180.000000 180.000000"
 preserveAspectRatio="xMidYMid meet">
<metadata>
Created by potrace 1.14, written by Peter Selinger 2001-2017
</metadata>
<g transform="translate(0.000000,180.000000) scale(0.100000,-0.100000)"
fill="#000000" stroke="none">
<path d="M788 1795 c-2 -2 -23 -7 -45 -9 -23 -3 -82 -19 -131 -35 -279 -93
-489 -314 -578 -608 -24 -79 -27 -104 -27 -238 0 -173 16 -250 81 -389 95
-201 261 -360 467 -445 229 -96 495 -91 718 12 270 125 473 387 515 667 13 81
6 281 -12 353 -63 262 -235 479 -473 600 -124 62 -238 89 -389 93 -67 2 -124
1 -126 -1z"/>
</g>
</svg>
