<svg width="19" height="18" viewBox="0 0 19 18" fill="none" xmlns="http://www.w3.org/2000/svg">
<path fill-rule="evenodd" clip-rule="evenodd" d="M6.32501 14.9763L12.303 8.99926L6.32501 3.02226C6.21946 2.9167 6.16016 2.77354 6.16016 2.62426C6.16016 2.47498 6.21946 2.33181 6.32501 2.22626C6.43057 2.1207 6.57373 2.0614 6.72301 2.0614C6.87229 2.0614 7.01546 2.1207 7.12101 2.22626L13.496 8.60126C13.6015 8.70683 13.6608 8.84999 13.6608 8.99926C13.6608 9.14853 13.6015 9.29168 13.496 9.39726L7.12101 15.7723C7.01467 15.8739 6.87275 15.9299 6.72564 15.9283C6.57853 15.9266 6.43791 15.8674 6.33388 15.7634C6.22986 15.6594 6.17068 15.5187 6.16902 15.3716C6.16736 15.2245 6.22336 15.0826 6.32501 14.9763Z" fill="#333333"/>
</svg>
