<svg width="18" height="14" viewBox="0 0 18 14" fill="none" xmlns="http://www.w3.org/2000/svg">
<path fill-rule="evenodd" clip-rule="evenodd" d="M0.347656 0.999268C0.347656 0.446983 0.795372 -0.000732422 1.34766 -0.000732422H16.3477C16.8999 -0.000732422 17.3477 0.446983 17.3477 0.999268C17.3477 1.55155 16.8999 1.99927 16.3477 1.99927H1.34766C0.795371 1.99927 0.347656 1.55155 0.347656 0.999268ZM1.34766 13.9993H16.3477C16.8999 13.9993 17.3477 13.5516 17.3477 12.9993C17.3477 12.447 16.8999 11.9993 16.3477 11.9993H1.34766C0.795372 11.9993 0.347656 12.447 0.347656 12.9993C0.347656 13.5516 0.795371 13.9993 1.34766 13.9993ZM0.347656 6.99927C0.347656 6.44698 0.795372 5.99927 1.34766 5.99927H16.3477C16.8999 5.99927 17.3477 6.44698 17.3477 6.99927C17.3477 7.55155 16.8999 7.99927 16.3477 7.99927H1.34766C0.795371 7.99927 0.347656 7.55155 0.347656 6.99927Z" fill="#333333"/>
</svg>
