<svg width="19" height="18" viewBox="0 0 19 18" fill="none" xmlns="http://www.w3.org/2000/svg">
<mask id="mask0_126_317" style="mask-type:alpha" maskUnits="userSpaceOnUse" x="2" y="7" width="14" height="4">
<path d="M9.34768 7.49927C9.74564 7.4994 10.1272 7.65762 10.4085 7.93911C10.6899 8.2206 10.8478 8.60231 10.8477 9.00027C10.8475 9.39823 10.6893 9.77983 10.4078 10.0611C10.1263 10.3424 9.74464 10.5004 9.34668 10.5003C9.14963 10.5002 8.95453 10.4613 8.7725 10.3859C8.59048 10.3104 8.4251 10.1998 8.28581 10.0604C8.00451 9.77894 7.84655 9.39723 7.84668 8.99927C7.84675 8.80222 7.88562 8.60711 7.96109 8.42509C8.03656 8.24307 8.14714 8.07769 8.28652 7.9384C8.56801 7.6571 8.94972 7.49914 9.34768 7.49927V7.49927ZM14.3977 7.49927C14.5947 7.49933 14.7898 7.53821 14.9719 7.61368C15.1539 7.68915 15.3193 7.79973 15.4585 7.93911C15.5978 8.07849 15.7083 8.24394 15.7837 8.42601C15.859 8.60809 15.8977 8.80322 15.8977 9.00027C15.8976 9.19732 15.8587 9.39242 15.7833 9.57445C15.7078 9.75647 15.5972 9.92185 15.4578 10.0611C15.3185 10.2004 15.153 10.3109 14.9709 10.3862C14.7889 10.4616 14.5937 10.5003 14.3967 10.5003C13.9987 10.5001 13.6171 10.3419 13.3358 10.0604C13.0545 9.77894 12.8965 9.39723 12.8967 8.99927C12.8968 8.60131 13.055 8.2197 13.3365 7.9384C13.618 7.6571 13.9997 7.49914 14.3977 7.49927V7.49927ZM4.34768 7.49927C4.54473 7.49933 4.73983 7.53821 4.92186 7.61368C5.10388 7.68915 5.26926 7.79973 5.40855 7.93911C5.54783 8.07849 5.65831 8.24394 5.73365 8.42601C5.809 8.60809 5.84775 8.80322 5.84768 9.00027C5.84761 9.19732 5.80874 9.39242 5.73327 9.57445C5.6578 9.75647 5.54722 9.92185 5.40784 10.0611C5.26846 10.2004 5.10301 10.3109 4.92093 10.3862C4.73886 10.4616 4.54373 10.5003 4.34668 10.5003C3.94872 10.5001 3.56712 10.3419 3.28581 10.0604C3.00451 9.77894 2.84655 9.39723 2.84668 8.99927C2.84681 8.60131 3.00503 8.2197 3.28652 7.9384C3.56801 7.6571 3.94972 7.49914 4.34768 7.49927V7.49927Z" fill="white"/>
</mask>
<g mask="url(#mask0_126_317)">
<path d="M9.34768 7.49927C9.74564 7.4994 10.1272 7.65762 10.4085 7.93911C10.6899 8.2206 10.8478 8.60231 10.8477 9.00027C10.8475 9.39823 10.6893 9.77983 10.4078 10.0611C10.1263 10.3424 9.74464 10.5004 9.34668 10.5003C9.14963 10.5002 8.95453 10.4613 8.7725 10.3859C8.59048 10.3104 8.4251 10.1998 8.28581 10.0604C8.00451 9.77894 7.84655 9.39723 7.84668 8.99927C7.84675 8.80222 7.88562 8.60711 7.96109 8.42509C8.03656 8.24307 8.14714 8.07769 8.28652 7.9384C8.56801 7.6571 8.94972 7.49914 9.34768 7.49927V7.49927ZM14.3977 7.49927C14.5947 7.49933 14.7898 7.53821 14.9719 7.61368C15.1539 7.68915 15.3193 7.79973 15.4585 7.93911C15.5978 8.07849 15.7083 8.24394 15.7837 8.42601C15.859 8.60809 15.8977 8.80322 15.8977 9.00027C15.8976 9.19732 15.8587 9.39242 15.7833 9.57445C15.7078 9.75647 15.5972 9.92185 15.4578 10.0611C15.3185 10.2004 15.153 10.3109 14.9709 10.3862C14.7889 10.4616 14.5937 10.5003 14.3967 10.5003C13.9987 10.5001 13.6171 10.3419 13.3358 10.0604C13.0545 9.77894 12.8965 9.39723 12.8967 8.99927C12.8968 8.60131 13.055 8.2197 13.3365 7.9384C13.618 7.6571 13.9997 7.49914 14.3977 7.49927V7.49927ZM4.34768 7.49927C4.54473 7.49933 4.73983 7.53821 4.92186 7.61368C5.10388 7.68915 5.26926 7.79973 5.40855 7.93911C5.54783 8.07849 5.65831 8.24394 5.73365 8.42601C5.809 8.60809 5.84775 8.80322 5.84768 9.00027C5.84761 9.19732 5.80874 9.39242 5.73327 9.57445C5.6578 9.75647 5.54722 9.92185 5.40784 10.0611C5.26846 10.2004 5.10301 10.3109 4.92093 10.3862C4.73886 10.4616 4.54373 10.5003 4.34668 10.5003C3.94872 10.5001 3.56712 10.3419 3.28581 10.0604C3.00451 9.77894 2.84655 9.39723 2.84668 8.99927C2.84681 8.60131 3.00503 8.2197 3.28652 7.9384C3.56801 7.6571 3.94972 7.49914 4.34768 7.49927V7.49927Z" fill="#333333"/>
<path fill-rule="evenodd" clip-rule="evenodd" d="M0.347656 -0.000732422H18.3477V17.9993H0.347656V-0.000732422Z" fill="#333333"/>
</g>
</svg>
