<svg width="19" height="18" viewBox="0 0 19 18" fill="none" xmlns="http://www.w3.org/2000/svg">
<g clip-path="url(#clip0_126_340)">
<mask id="mask0_126_340" style="mask-type:alpha" maskUnits="userSpaceOnUse" x="2" y="0" width="15" height="18">
<path d="M7.90166 14.8123H11.0847C10.9679 15.141 10.7522 15.4254 10.4672 15.6266C10.1822 15.8277 9.84197 15.9357 9.49316 15.9357C9.14434 15.9357 8.80408 15.8277 8.51912 15.6266C8.23415 15.4254 8.01845 15.141 7.90166 14.8123V14.8123ZM9.49366 17.0623C10.2395 17.062 10.9548 16.7655 11.4821 16.238C12.0094 15.7105 12.3057 14.9952 12.3057 14.2493C12.3057 14.1001 12.2465 13.9571 12.1411 13.8515C12.0357 13.746 11.8928 13.6865 11.7437 13.6863H4.24366C3.93366 13.6863 3.70266 13.6723 3.54466 13.6463C3.56266 13.6103 3.58466 13.5693 3.61066 13.5233C3.64666 13.4583 3.96466 12.9183 4.07066 12.7233C4.54766 11.8483 4.80566 11.0473 4.80566 10.1243V6.74928C4.80566 4.09328 6.86266 2.06128 9.49366 2.06128C12.1237 2.06128 14.1807 4.09328 14.1807 6.74928V10.1243C14.1807 11.0473 14.4387 11.8483 14.9167 12.7243C15.0227 12.9183 15.3407 13.4583 15.3767 13.5233C15.4027 13.5693 15.4237 13.6103 15.4417 13.6463C15.2847 13.6723 15.0527 13.6863 14.7437 13.6863C14.6001 13.6948 14.4653 13.7579 14.3667 13.8625C14.2681 13.9672 14.2132 14.1055 14.2132 14.2493C14.2132 14.393 14.2681 14.5314 14.3667 14.636C14.4653 14.7407 14.6001 14.8037 14.7437 14.8123C16.0067 14.8123 16.6397 14.5913 16.6397 13.8103C16.6397 13.5503 16.5477 13.3163 16.3597 12.9773C16.3147 12.8943 15.9987 12.3583 15.9037 12.1853C15.5087 11.4613 15.3057 10.8303 15.3057 10.1243V6.74928C15.3057 3.46928 12.7427 0.936279 9.49366 0.936279C6.24466 0.936279 3.68066 3.46928 3.68066 6.74928V10.1243C3.68066 10.8303 3.47766 11.4613 3.08266 12.1843C2.98866 12.3583 2.67266 12.8943 2.62666 12.9773C2.43866 13.3163 2.34766 13.5493 2.34766 13.8103C2.34766 14.5903 2.97966 14.8123 4.24366 14.8123H6.73766C6.86741 15.4475 7.21257 16.0183 7.71477 16.4283C8.21696 16.8383 8.84536 17.0623 9.49366 17.0623V17.0623Z" fill="white"/>
</mask>
<g mask="url(#mask0_126_340)">
<path d="M7.90166 14.8123H11.0847C10.9679 15.141 10.7522 15.4254 10.4672 15.6266C10.1822 15.8277 9.84197 15.9357 9.49316 15.9357C9.14434 15.9357 8.80408 15.8277 8.51912 15.6266C8.23415 15.4254 8.01845 15.141 7.90166 14.8123V14.8123ZM9.49366 17.0623C10.2395 17.062 10.9548 16.7655 11.4821 16.238C12.0094 15.7105 12.3057 14.9952 12.3057 14.2493C12.3057 14.1001 12.2465 13.9571 12.1411 13.8515C12.0357 13.746 11.8928 13.6865 11.7437 13.6863H4.24366C3.93366 13.6863 3.70266 13.6723 3.54466 13.6463C3.56266 13.6103 3.58466 13.5693 3.61066 13.5233C3.64666 13.4583 3.96466 12.9183 4.07066 12.7233C4.54766 11.8483 4.80566 11.0473 4.80566 10.1243V6.74928C4.80566 4.09328 6.86266 2.06128 9.49366 2.06128C12.1237 2.06128 14.1807 4.09328 14.1807 6.74928V10.1243C14.1807 11.0473 14.4387 11.8483 14.9167 12.7243C15.0227 12.9183 15.3407 13.4583 15.3767 13.5233C15.4027 13.5693 15.4237 13.6103 15.4417 13.6463C15.2847 13.6723 15.0527 13.6863 14.7437 13.6863C14.6001 13.6948 14.4653 13.7579 14.3667 13.8625C14.2681 13.9672 14.2132 14.1055 14.2132 14.2493C14.2132 14.393 14.2681 14.5314 14.3667 14.636C14.4653 14.7407 14.6001 14.8037 14.7437 14.8123C16.0067 14.8123 16.6397 14.5913 16.6397 13.8103C16.6397 13.5503 16.5477 13.3163 16.3597 12.9773C16.3147 12.8943 15.9987 12.3583 15.9037 12.1853C15.5087 11.4613 15.3057 10.8303 15.3057 10.1243V6.74928C15.3057 3.46928 12.7427 0.936279 9.49366 0.936279C6.24466 0.936279 3.68066 3.46928 3.68066 6.74928V10.1243C3.68066 10.8303 3.47766 11.4613 3.08266 12.1843C2.98866 12.3583 2.67266 12.8943 2.62666 12.9773C2.43866 13.3163 2.34766 13.5493 2.34766 13.8103C2.34766 14.5903 2.97966 14.8123 4.24366 14.8123H6.73766C6.86741 15.4475 7.21257 16.0183 7.71477 16.4283C8.21696 16.8383 8.84536 17.0623 9.49366 17.0623V17.0623Z" stroke="black" stroke-width="0.3"/>
<path fill-rule="evenodd" clip-rule="evenodd" d="M0.347656 -0.000732422H18.3477V17.9993H0.347656V-0.000732422Z" fill="black"/>
</g>
</g>
<defs>
<clipPath id="clip0_126_340">
<rect width="18" height="18" fill="white" transform="translate(0.347656 -0.000732422)"/>
</clipPath>
</defs>
</svg>
