<svg width="19" height="18" viewBox="0 0 19 18" fill="none" xmlns="http://www.w3.org/2000/svg">
<g clip-path="url(#clip0_126_306)">
<path d="M16.0751 17.2722C16.127 17.3264 16.1891 17.3698 16.2579 17.3996C16.3267 17.4295 16.4008 17.4453 16.4758 17.4462C16.5508 17.447 16.6252 17.4329 16.6946 17.4045C16.7641 17.3762 16.8272 17.3343 16.8802 17.2813C16.9332 17.2283 16.9752 17.1652 17.0035 17.0957C17.0318 17.0263 17.0459 16.9518 17.0451 16.8769C17.0442 16.8019 17.0284 16.7278 16.9985 16.659C16.9687 16.5902 16.9254 16.528 16.8711 16.4762L11.9961 11.6012L11.8061 11.4362C11.6986 11.3439 11.5603 11.2955 11.4187 11.3007C11.277 11.3059 11.1426 11.3643 11.0421 11.4642C10.1641 12.3358 8.99732 12.8557 7.76215 12.9257C6.52698 12.9958 5.3089 12.6112 4.33791 11.8446C3.36693 11.0779 2.71025 9.98228 2.49188 8.76455C2.2735 7.54682 2.50855 6.29127 3.15263 5.235C3.79671 4.17872 4.80525 3.39482 5.98781 3.03133C7.17036 2.66784 8.44508 2.74991 9.57126 3.26204C10.6974 3.77418 11.5971 4.68093 12.1004 5.81108C12.6038 6.94122 12.6759 8.21655 12.3031 9.39622C12.2809 9.46668 12.2728 9.54081 12.2793 9.6144C12.2858 9.68798 12.3066 9.75957 12.3408 9.82508C12.3749 9.8906 12.4216 9.94874 12.4782 9.99621C12.5348 10.0437 12.6002 10.0795 12.6706 10.1017C12.7411 10.1239 12.8152 10.132 12.8888 10.1256C12.9624 10.1191 13.034 10.0982 13.0995 10.0641C13.165 10.03 13.2232 9.98327 13.2706 9.92667C13.3181 9.87007 13.3539 9.80468 13.3761 9.73422C13.8242 8.31463 13.7455 6.78109 13.1545 5.41482C12.5635 4.04854 11.4998 2.94112 10.1584 2.29562C8.81697 1.65012 7.28783 1.50982 5.85137 1.90044C4.4149 2.29106 3.1674 3.18642 2.33762 4.42234C1.50784 5.65825 1.15141 7.15187 1.33369 8.62929C1.51596 10.1067 2.22473 11.4689 3.33001 12.4661C4.4353 13.4633 5.86301 14.0286 7.35134 14.0584C8.83967 14.0881 10.2889 13.5804 11.4331 12.6282L16.0751 17.2722V17.2722Z" fill="#333333" stroke="#333333" stroke-width="0.3"/>
</g>
<defs>
<clipPath id="clip0_126_306">
<rect width="18" height="18" fill="white" transform="translate(0.347656 -0.000732422)"/>
</clipPath>
</defs>
</svg>
