<svg width="19" height="18" viewBox="0 0 19 18" fill="none" xmlns="http://www.w3.org/2000/svg">
<path fill-rule="evenodd" clip-rule="evenodd" d="M12.3703 3.02228L6.3923 8.99928L12.3703 14.9763C12.4759 15.0818 12.5352 15.225 12.5352 15.3743C12.5352 15.5236 12.4759 15.6667 12.3703 15.7723C12.2647 15.8778 12.1216 15.9371 11.9723 15.9371C11.823 15.9371 11.6799 15.8778 11.5743 15.7723L5.1993 9.39728C5.09378 9.2917 5.0345 9.14854 5.0345 8.99928C5.0345 8.85001 5.09378 8.70685 5.1993 8.60128L11.5743 2.22628C11.6806 2.12462 11.8226 2.06863 11.9697 2.07028C12.1168 2.07194 12.2574 2.13112 12.3614 2.23515C12.4655 2.33918 12.5246 2.47979 12.5263 2.6269C12.5279 2.77401 12.472 2.91593 12.3703 3.02228Z" fill="#333333"/>
</svg>
